<svg width="141" height="141" viewBox="0 0 141 141" fill="none" xmlns="http://www.w3.org/2000/svg">
<rect x="0.707275" y="0.879974" width="140" height="140" rx="70" fill="#383838"/>
<g clip-path="url(#clip0_656_3331)">
<path d="M46.4064 66.5491C57.5705 66.5491 66.6209 57.4734 66.6209 46.278C66.6209 35.0826 57.5705 26.0069 46.4064 26.0069C35.2422 26.0069 26.1919 35.0826 26.1919 46.278C26.1919 57.4734 35.2422 66.5491 46.4064 66.5491Z" fill="url(#paint0_linear_656_3331)"/>
<path d="M92.5102 105.25C97.2614 105.25 101.113 101.387 101.113 96.6227C101.113 91.8582 97.2614 87.9958 92.5102 87.9958C87.759 87.9958 83.9075 91.8582 83.9075 96.6227C83.9075 101.387 87.759 105.25 92.5102 105.25Z" fill="url(#paint1_linear_656_3331)"/>
<path d="M125.773 69.0587C125.505 63.6253 123.251 58.4812 119.442 54.6084C115.632 50.7356 110.534 48.4055 105.12 48.0629C103.886 47.9914 102.649 48.0215 101.421 48.1531C98.8763 48.4432 96.2997 48.1925 93.8586 47.4173C91.4175 46.6421 89.1666 45.3598 87.2528 43.654C80.8611 37.9024 72.6803 34.5483 64.1012 34.1619C42.9412 33.1922 25.0455 50.3161 25.0527 71.5533C25.056 74.6315 25.4388 77.6974 26.1923 80.6813C26.3087 81.1416 26.2724 81.6275 26.0888 82.0653C25.9053 82.503 25.5844 82.8689 25.1749 83.1075C23.1055 84.3212 21.3296 85.9791 19.9745 87.9622C18.6194 89.9453 17.7186 92.2046 17.3368 94.5779C16.955 96.9513 17.1016 99.38 17.7661 101.69C18.4306 104 19.5966 106.133 21.1804 107.938C22.7642 109.743 24.7266 111.174 26.9268 112.128C29.1271 113.083 31.5107 113.537 33.9068 113.459C36.3029 113.381 38.652 112.772 40.7858 111.676C42.9196 110.58 44.7851 109.025 46.2486 107.121C46.5339 106.744 46.9334 106.47 47.3871 106.34C47.8408 106.21 48.3243 106.231 48.7651 106.4L48.8621 106.436C52.4568 107.876 55.849 109.78 58.9532 112.099C60.7341 113.398 62.7673 114.308 64.9211 114.769C67.0748 115.23 69.3012 115.231 71.4557 114.774C73.6103 114.317 75.6451 113.411 77.4281 112.115C79.2112 110.819 80.7029 109.162 81.8064 107.25C83.7981 103.805 86.2137 100.625 88.9963 97.7836L89.1581 97.6177C90.967 95.7811 93.1396 94.345 95.5359 93.4018C97.9321 92.4586 100.499 92.0294 103.071 92.1417C103.319 92.1417 103.57 92.1417 103.818 92.1417C106.791 92.1375 109.732 91.5295 112.464 90.3543C115.196 89.1792 117.662 87.4612 119.714 85.304C121.765 83.1469 123.36 80.5953 124.401 77.8033C125.443 75.0112 125.909 72.0365 125.773 69.0587V69.0587Z" fill="url(#paint2_linear_656_3331)"/>
<path d="M59.5472 61.1962V76.0562C59.5472 78.6843 58.1884 80.3426 55.6791 80.6923C54.2318 80.9501 52.7415 80.6263 51.5305 79.791C49.3735 78.2553 49.3735 75.5154 51.5089 73.9761C52.1717 73.5048 52.9296 73.1853 53.7291 73.0402C54.5286 72.895 55.3501 72.9278 56.1356 73.1361C56.2974 73.1758 56.4592 73.201 56.7144 73.2515V57.6345C56.7144 56.5854 56.9337 56.3006 57.9008 56.0987L63.3399 54.9451C64.1632 54.7721 64.4184 54.9667 64.4184 55.8211C64.4184 56.8978 64.4184 57.9793 64.4184 59.0657C64.4184 59.8984 64.1308 60.2229 63.3399 60.3923L59.5472 61.1962Z" fill="white"/>
<path d="M67.7458 82.6461V67.011C67.7458 65.9295 67.886 65.7276 68.9285 65.5005C70.7835 65.0968 72.6421 64.7026 74.5043 64.3181C75.173 64.1811 75.3922 64.3649 75.3994 65.0751C75.4174 66.254 75.3994 67.4328 75.3994 68.6117C75.4138 68.7468 75.4012 68.8835 75.3624 69.0137C75.3236 69.1438 75.2593 69.265 75.1733 69.37C75.0873 69.4751 74.9813 69.5619 74.8615 69.6254C74.7417 69.6889 74.6105 69.7279 74.4755 69.74C73.415 69.9563 72.3653 70.2556 71.2976 70.4142C70.6541 70.5079 70.557 70.8143 70.557 71.4056C70.5786 76.02 70.557 80.6345 70.557 85.2489C70.557 88.4502 68.436 90.4582 65.3551 90.159C64.1852 90.095 63.0676 89.6523 62.17 88.8972C60.4767 87.4047 60.466 85.1011 62.17 83.6266C63.5648 82.4226 65.1969 82.2063 66.9333 82.4947C67.1742 82.5307 67.4114 82.5812 67.7458 82.6461Z" fill="white"/>
<path d="M85.0488 64.9597V79.8232C85.0488 82.4513 83.7007 84.0916 81.1734 84.4485C80.4341 84.5856 79.6745 84.5683 78.9421 84.3977C78.2098 84.2271 77.5204 83.9069 76.917 83.4571C74.9182 81.9322 74.9002 79.3329 76.917 77.8188C77.595 77.3066 78.3821 76.9586 79.2166 76.8023C80.051 76.6459 80.9103 76.6854 81.727 76.9176C81.8601 76.95 82.0003 76.9608 82.2555 76.9969V61.4736C82.2555 60.2371 82.3921 60.0821 83.5641 59.8369C85.3292 59.4764 87.0943 59.0799 88.8594 58.7013C89.6899 58.5247 89.9128 58.7013 89.9164 59.5882C89.9164 60.6649 89.9164 61.7464 89.9164 62.8327C89.9164 63.6979 89.6755 63.9863 88.8594 64.163L85.0488 64.9597Z" fill="white"/>
</g>
<defs>
<linearGradient id="paint0_linear_656_3331" x1="53.1296" y1="65.3948" x2="39.6125" y2="27.1819" gradientUnits="userSpaceOnUse">
<stop stop-color="#3FB1FF"/>
<stop offset="1" stop-color="#FFAADE"/>
</linearGradient>
<linearGradient id="paint1_linear_656_3331" x1="87.3847" y1="89.6992" x2="97.6731" y2="103.524" gradientUnits="userSpaceOnUse">
<stop stop-color="#283593"/>
<stop offset="0.99" stop-color="#7D8BFE"/>
</linearGradient>
<linearGradient id="paint2_linear_656_3331" x1="17.1222" y1="74.6212" x2="125.805" y2="74.6212" gradientUnits="userSpaceOnUse">
<stop stop-color="#3FB1FF"/>
<stop offset="1" stop-color="#D494FF"/>
</linearGradient>
<clipPath id="clip0_656_3331">
<rect width="108.683" height="89.12" fill="white" transform="translate(17.1219 26)"/>
</clipPath>
</defs>
</svg>
