<svg width="141" height="141" viewBox="0 0 141 141" fill="none" xmlns="http://www.w3.org/2000/svg">
<g clip-path="url(#clip0_656_3331)">
<rect x="0.707275" y="0.879974" width="140" height="140" rx="70" fill="#383838"/>
<g clip-path="url(#clip1_656_3331)">
<path d="M22.1915 58.8386C46.1333 58.8386 65.542 39.3756 65.542 15.3667C65.542 -8.64212 46.1333 -28.1051 22.1915 -28.1051C-1.75028 -28.1051 -21.1589 -8.64212 -21.1589 15.3667C-21.1589 39.3756 -1.75028 58.8386 22.1915 58.8386Z" fill="url(#paint0_linear_656_3331)"/>
<path d="M121.062 141.832C131.251 141.832 139.511 133.55 139.511 123.332C139.511 113.114 131.251 104.832 121.062 104.832C110.873 104.832 102.613 113.114 102.613 123.332C102.613 133.55 110.873 141.832 121.062 141.832Z" fill="url(#paint1_linear_656_3331)"/>
<path d="M192.395 64.2204C191.821 52.5685 186.988 41.5367 178.818 33.2314C170.648 24.9261 159.714 19.9291 148.104 19.1946C145.458 19.0411 142.805 19.1058 140.171 19.3879C134.714 20.0101 129.189 19.4724 123.954 17.81C118.719 16.1476 113.892 13.3977 109.787 9.73949C96.0804 -2.59487 78.5364 -9.78784 60.1384 -10.6164C14.7603 -12.6961 -23.6175 24.0265 -23.6021 69.5703C-23.5949 76.1714 -22.774 82.7463 -21.1582 89.1454C-20.9084 90.1326 -20.9863 91.1745 -21.38 92.1134C-21.7737 93.0522 -22.4617 93.8368 -23.3399 94.3484C-27.7778 96.9513 -31.5863 100.507 -34.4924 104.759C-37.3985 109.012 -39.3302 113.857 -40.149 118.947C-40.9678 124.037 -40.6533 129.245 -39.2283 134.199C-37.8032 139.152 -35.3028 143.728 -31.9063 147.598C-28.5098 151.469 -24.3014 154.537 -19.5829 156.584C-14.8644 158.631 -9.75261 159.606 -4.61419 159.438C0.524234 159.271 5.56202 157.965 10.1379 155.615C14.7139 153.265 18.7145 149.929 21.8531 145.845C22.465 145.037 23.3216 144.449 24.2946 144.171C25.2675 143.892 26.3044 143.937 27.2497 144.299L27.4579 144.376C35.1666 147.465 42.4413 151.548 49.0984 156.522C52.9175 159.308 57.2777 161.258 61.8966 162.247C66.5154 163.235 71.2898 163.239 75.9104 162.259C80.5309 161.278 84.8945 159.336 88.7184 156.556C92.5422 153.776 95.7411 150.222 98.1076 146.123C102.379 138.735 107.559 131.915 113.527 125.822L113.873 125.466C117.753 121.527 122.412 118.448 127.551 116.425C132.69 114.402 138.194 113.482 143.709 113.723C144.241 113.723 144.781 113.723 145.313 113.723C151.688 113.714 157.995 112.41 163.853 109.889C169.712 107.369 175.001 103.685 179.401 99.059C183.8 94.433 187.22 88.9611 189.453 82.9734C191.687 76.9857 192.687 70.6064 192.395 64.2204V64.2204Z" fill="url(#paint2_linear_656_3331)"/>
<path d="M50.3722 47.3592V79.2267C50.3722 84.8626 47.458 88.4189 42.0768 89.1688C38.9732 89.7218 35.7772 89.0275 33.18 87.2361C28.5543 83.9426 28.5543 78.067 33.1338 74.7658C34.5551 73.7552 36.1806 73.07 37.8951 72.7588C39.6096 72.4475 41.3714 72.5177 43.0559 72.9645C43.4028 73.0495 43.7497 73.1036 44.2971 73.2119V39.7208C44.2971 37.4711 44.7674 36.8604 46.8412 36.4274L58.5057 33.9535C60.2712 33.5824 60.8185 33.9999 60.8185 35.8321C60.8185 38.1411 60.8185 40.4605 60.8185 42.7901C60.8185 44.576 60.2018 45.2718 58.5057 45.6351L50.3722 47.3592Z" fill="white"/>
<path d="M67.9544 93.3588V59.8292C67.9544 57.5098 68.255 57.0769 70.4908 56.5898C74.4689 55.724 78.4547 54.8787 82.4482 54.054C83.8822 53.7603 84.3524 54.1545 84.3679 55.6776C84.4064 58.2056 84.3679 60.7337 84.3679 63.2617C84.3987 63.5515 84.3717 63.8446 84.2884 64.1238C84.2052 64.403 84.0673 64.6628 83.8829 64.8881C83.6985 65.1133 83.4712 65.2994 83.2143 65.4357C82.9574 65.5719 82.676 65.6555 82.3865 65.6816C80.1122 66.1454 77.8611 66.7871 75.5713 67.1273C74.1913 67.3283 73.9832 67.9854 73.9832 69.2533C74.0294 79.1491 73.9832 89.0449 73.9832 98.9407C73.9832 105.806 69.4346 110.112 62.8276 109.47C60.3187 109.333 57.9219 108.384 55.9969 106.765C52.3658 103.564 52.3427 98.6237 55.9969 95.4617C58.9882 92.8795 62.4883 92.4156 66.212 93.0341C66.7286 93.1114 67.2374 93.2197 67.9544 93.3588Z" fill="white"/>
<path d="M105.061 55.4299V87.3051C105.061 92.9411 102.17 96.4587 96.7503 97.2241C95.1648 97.5181 93.5359 97.481 91.9653 97.1152C90.3947 96.7494 88.9163 96.0627 87.6223 95.0981C83.3358 91.8278 83.2973 86.2537 87.6223 83.0067C89.0763 81.9081 90.7642 81.1619 92.5538 80.8266C94.3433 80.4913 96.186 80.5759 97.9375 81.0739C98.2228 81.1435 98.5235 81.1667 99.0708 81.244V47.954C99.0708 45.3022 99.3638 44.9697 101.877 44.444C105.662 43.6709 109.448 42.8205 113.233 42.0088C115.014 41.6299 115.492 42.0088 115.5 43.9106C115.5 46.2196 115.5 48.5389 115.5 50.8686C115.5 52.724 114.983 53.3425 113.233 53.7213L105.061 55.4299Z" fill="white"/>
</g>
</g>
<defs>
<linearGradient id="paint0_linear_656_3331" x1="36.6097" y1="56.3632" x2="7.62186" y2="-25.5854" gradientUnits="userSpaceOnUse">
<stop stop-color="#3FB1FF"/>
<stop offset="1" stop-color="#FFAADE"/>
</linearGradient>
<linearGradient id="paint1_linear_656_3331" x1="110.07" y1="108.484" x2="132.134" y2="138.132" gradientUnits="userSpaceOnUse">
<stop stop-color="#283593"/>
<stop offset="0.99" stop-color="#7D8BFE"/>
</linearGradient>
<linearGradient id="paint2_linear_656_3331" x1="-40.6092" y1="76.1495" x2="192.464" y2="76.1495" gradientUnits="userSpaceOnUse">
<stop stop-color="#3FB1FF"/>
<stop offset="1" stop-color="#D494FF"/>
</linearGradient>
<clipPath id="clip0_656_3331">
<rect x="0.707275" y="0.879974" width="140" height="140" rx="70" fill="white"/>
</clipPath>
<clipPath id="clip1_656_3331">
<rect width="233.073" height="191.12" fill="white" transform="translate(-40.6097 -28.12)"/>
</clipPath>
</defs>
</svg>
